<svg id="Capa_1" enable-background="new 0 0 512 512" height="512" viewBox="0 0 512 512" width="512" xmlns="http://www.w3.org/2000/svg"><g><path d="m504.5 135.791h-497v-76.773c0-11.158 9.045-20.203 20.203-20.203h456.594c11.158 0 20.203 9.045 20.203 20.203z" fill="#62a4fb"/><path d="m484.297 38.815h-25.254c11.158 0 20.203 9.045 20.203 20.203v76.772h25.254v-76.772c0-11.158-9.045-20.203-20.203-20.203z" fill="#5392f9"/><path d="m484.297 473.185h-456.594c-11.158 0-20.203-9.045-20.203-20.203v-317.191h497v317.191c0 11.158-9.045 20.203-20.203 20.203z" fill="#e6f7fe"/><path d="m479.246 135.791v317.191c0 11.158-9.045 20.203-20.203 20.203h25.254c11.158 0 20.203-9.045 20.203-20.203v-317.191z" fill="#d3effd"/><path d="m336.813-31.896h32.325v238.398h-32.325z" fill="#e6f7fe" transform="matrix(0 1 -1 0 440.278 -265.673)"/><circle cx="55.988" cy="87.303" fill="#df646e" r="16.163"/><circle cx="120.638" cy="87.303" fill="#ffe07d" r="16.163"/><circle cx="185.289" cy="87.303" fill="#b3e59f" r="16.163"/><g><path d="m407.913 406.426-22.213-38.474 20.996-12.122-69.986-40.407v80.813l20.996-12.121 22.213 38.474z" fill="#e27d47"/></g><g><path d="m416.952 279.234c0 5.579 4.523 10.102 10.102 10.102s10.102-4.523 10.102-10.102-4.523-10.102-10.102-10.102-10.102 4.523-10.102 10.102z"/><path d="m484.3 31.32h-377.3c-4.143 0-7.5 3.358-7.5 7.5s3.357 7.5 7.5 7.5h377.3c7.003 0 12.7 5.697 12.7 12.7v69.27h-52.45c-4.143 0-7.5 3.358-7.5 7.5s3.357 7.5 7.5 7.5h52.45v309.69c0 7.003-5.697 12.7-12.7 12.7h-347.85c-4.143 0-7.5 3.358-7.5 7.5s3.357 7.5 7.5 7.5h347.85c15.274 0 27.7-12.426 27.7-27.7v-393.96c0-15.274-12.426-27.7-27.7-27.7z"/><path d="m101.45 465.68h-73.75c-7.003 0-12.7-5.697-12.7-12.7v-309.69h394.55c4.143 0 7.5-3.358 7.5-7.5s-3.357-7.5-7.5-7.5h-394.55v-69.27c0-7.003 5.697-12.7 12.7-12.7h44.3c4.143 0 7.5-3.358 7.5-7.5s-3.357-7.5-7.5-7.5h-44.3c-15.274 0-27.7 12.426-27.7 27.7v393.96c0 15.274 12.426 27.7 27.7 27.7h73.75c4.143 0 7.5-3.358 7.5-7.5s-3.357-7.5-7.5-7.5z"/><path d="m479.675 103.465v-32.325c0-4.142-3.357-7.5-7.5-7.5h-238.399c-4.143 0-7.5 3.358-7.5 7.5v32.325c0 4.142 3.357 7.5 7.5 7.5h238.398c4.143 0 7.501-3.358 7.501-7.5zm-15-7.5h-223.399v-17.325h223.398v17.325z"/><path d="m55.988 63.64c-13.048 0-23.663 10.615-23.663 23.663s10.615 23.663 23.663 23.663c13.047 0 23.662-10.615 23.662-23.663s-10.615-23.663-23.662-23.663zm0 32.325c-4.776 0-8.663-3.886-8.663-8.663s3.887-8.663 8.663-8.663 8.662 3.886 8.662 8.663-3.885 8.663-8.662 8.663z"/><path d="m144.301 87.303c0-13.047-10.615-23.663-23.662-23.663-13.048 0-23.663 10.615-23.663 23.663s10.615 23.663 23.663 23.663c13.047-.001 23.662-10.616 23.662-23.663zm-32.325 0c0-4.776 3.887-8.663 8.663-8.663s8.662 3.886 8.662 8.663-3.886 8.663-8.662 8.663-8.663-3.887-8.663-8.663z"/><path d="m208.951 87.303c0-13.047-10.615-23.663-23.662-23.663-13.048 0-23.663 10.615-23.663 23.663s10.615 23.663 23.663 23.663c13.047-.001 23.662-10.616 23.662-23.663zm-32.325 0c0-4.776 3.887-8.663 8.663-8.663s8.662 3.886 8.662 8.663-3.886 8.663-8.662 8.663-8.663-3.887-8.663-8.663z"/><path d="m132.987 289.764c3.81-.027 7.192-2.468 8.419-6.075.022-.065.044-.131.064-.197l12.504-40.4 12.448 40.409c.032.103.065.205.102.306 1.271 3.57 4.657 5.957 8.441 5.957h.063c3.81-.027 7.192-2.468 8.419-6.075.105-.311.191-.628.255-.951l12.646-63.542c.809-4.062-1.829-8.011-5.892-8.82-4.063-.807-8.011 1.829-8.819 5.892l-7.94 39.897-12.557-40.76c-1.092-3.547-4.617-5.757-8.284-5.208-3.161.476-5.612 2.881-6.231 5.91l-12.401 40.063-7.914-40.012c-.804-4.064-4.747-6.704-8.812-5.902-4.063.804-6.706 4.75-5.902 8.812l12.596 63.68c.071.36.169.714.291 1.059 1.271 3.57 4.657 5.957 8.441 5.957z"/><path d="m283.665 216.269-7.94 39.897-12.557-40.76c-1.092-3.547-4.618-5.757-8.284-5.208-3.161.476-5.612 2.881-6.231 5.91l-12.401 40.063-7.914-40.012c-.804-4.064-4.747-6.704-8.812-5.902-4.063.804-6.706 4.75-5.902 8.812l12.596 63.68c.071.36.169.714.291 1.059 1.271 3.57 4.657 5.957 8.441 5.957h.063c3.81-.027 7.192-2.468 8.419-6.075.022-.065.044-.131.064-.197l12.504-40.4 12.448 40.409c.032.103.065.205.102.306 1.271 3.57 4.657 5.957 8.441 5.957h.063c3.81-.027 7.192-2.468 8.419-6.075.105-.311.191-.628.255-.951l12.646-63.542c.809-4.062-1.829-8.011-5.892-8.82-4.061-.807-8.011 1.829-8.819 5.892z"/><path d="m336.977 289.764h.061c3.811-.026 7.195-2.467 8.422-6.075.022-.065.044-.131.064-.197l12.505-40.4 12.448 40.409c.031.101.064.202.101.301 1.268 3.572 4.655 5.961 8.441 5.961h.061c3.811-.026 7.195-2.467 8.422-6.075.105-.311.191-.628.255-.951l12.646-63.542c.809-4.062-1.829-8.011-5.892-8.82-4.064-.807-8.012 1.829-8.819 5.892l-7.94 39.896-12.557-40.759c-1.092-3.547-4.619-5.757-8.284-5.208-3.161.476-5.612 2.881-6.231 5.91l-12.4 40.062-7.915-40.011c-.805-4.062-4.747-6.704-8.812-5.902-4.063.804-6.706 4.75-5.902 8.813l12.597 63.68c.07.358.168.71.29 1.054 1.265 3.573 4.652 5.962 8.439 5.962z"/><path d="m332.96 402.731c2.32 1.34 5.18 1.34 7.5 0l14.5-8.372 18.464 31.979c1.39 2.406 3.91 3.751 6.502 3.751 1.272 0 2.562-.324 3.743-1.006l27.994-16.163c3.587-2.071 4.816-6.658 2.745-10.245l-18.463-31.979 14.5-8.372c2.32-1.34 3.75-3.816 3.75-6.495 0-2.68-1.43-5.155-3.75-6.495l-69.985-40.407c-2.32-1.34-5.18-1.34-7.5 0s-3.75 3.815-3.75 6.495v80.813c0 2.681 1.43 5.157 3.75 6.496zm11.25-74.317 47.485 27.416-9.745 5.627c-3.587 2.071-4.816 6.658-2.745 10.245l18.463 31.979-15.004 8.663-18.464-31.979c-1.39-2.406-3.91-3.751-6.502-3.751-1.272 0-2.562.324-3.743 1.006l-9.745 5.626z"/></g></g></svg>